HIERARCHY
ROOT hip
{
	OFFSET 0.000000 0.000000 0.000000
	CHANNELS 6 Xposition Yposition Zposition Xrotation Zrotation Yrotation 
	JOINT abdomen
	{
		OFFSET 0.000000 3.422050 0.000000
		CHANNELS 3 Xrotation Zrotation Yrotation 
		JOINT chest
		{
			OFFSET 0.000000 8.486693 -0.684411
			CHANNELS 3 Xrotation Zrotation Yrotation 
			JOINT neck
			{
				OFFSET 0.000000 10.266162 -0.273764
				CHANNELS 3 Xrotation Zrotation Yrotation 
				JOINT head
				{
					OFFSET 0.000000 3.148285 0.000000
					CHANNELS 3 Xrotation Zrotation Yrotation 
					End Site
					{
						OFFSET 0.000000 3.148289 0.000000
					}
				}
			}
			JOINT lCollar
			{
				OFFSET 3.422053 6.707223 -0.821293
				CHANNELS 3 Yrotation Zrotation Xrotation 
				JOINT lShldr
				{
					OFFSET 3.285171 0.000000 0.000000
					CHANNELS 3 Zrotation Yrotation Xrotation 
					JOINT lForeArm
					{
						OFFSET 10.129278 0.000000 0.000000
						CHANNELS 3 Yrotation Zrotation Xrotation 
						JOINT lHand
						{
							OFFSET 8.486692 0.000000 0.000000
							CHANNELS 3 Zrotation Yrotation Xrotation 
							End Site
							{
								OFFSET 4.106464 0.000000 0.000000
							}
						}
					}
				}
			}
			JOINT rCollar
			{
				OFFSET -3.558935 6.707223 -0.821293
				CHANNELS 3 Yrotation Zrotation Xrotation 
				JOINT rShldr
				{
					OFFSET -3.148289 0.000000 0.000000
					CHANNELS 3 Zrotation Yrotation Xrotation 
					JOINT rForeArm
					{
						OFFSET -10.266159 0.000000 0.000000
						CHANNELS 3 Yrotation Zrotation Xrotation 
						JOINT rHand
						{
							OFFSET -8.349810 0.000000 0.000000
							CHANNELS 3 Zrotation Yrotation Xrotation 
							End Site
							{
								OFFSET -4.106464 0.000000 0.000000
							}
						}
					}
				}
			}
		}
	}
	JOINT lThigh
	{
		OFFSET 5.338403 -1.642589 1.368821
		CHANNELS 3 Xrotation Zrotation Yrotation 
		JOINT lShin
		{
			OFFSET -2.053232 -20.121670 0.000000
			CHANNELS 3 Xrotation Zrotation Yrotation 
			JOINT lFoot
			{
				OFFSET 0.000000 -19.300380 -1.231939
				CHANNELS 3 Xrotation Yrotation Zrotation 
				End Site
				{
					OFFSET 0.000000 -2.463878 4.653993
				}
			}
		}
	}
	JOINT rThigh
	{
		OFFSET -5.338403 -1.642589 1.368821
		CHANNELS 3 Xrotation Zrotation Yrotation 
		JOINT rShin
		{
			OFFSET 2.053232 -20.121670 0.000000
			CHANNELS 3 Xrotation Zrotation Yrotation 
			JOINT rFoot
			{
				OFFSET 0.000000 -19.300380 -1.231939
				CHANNELS 3 Xrotation Yrotation Zrotation 
				End Site
				{
					OFFSET 0.000000 -2.463878 4.653993
				}
			}
		}
	}
}
MOTION
Frames: 19
Frame Time: 0.049897
3.571428 25.821468 0.009011 12.993354 0.000000 0.000000 23.879206 17.470575 -0.618394 -7.889173 -3.983623 -1.505339 -32.037224 -8.389124 -0.071196 -18.114967 -0.042236 -1.328731 -32.695599 14.435160 -49.848804 -30.986500 -5.532172 -5.566779 -21.803865 -25.963055 6.525942 -13.125758 35.774559 -20.462198 -12.316449 -8.251023 -9.516781 60.794075 17.555546 -42.877502 83.295166 52.841648 0.712951 -17.556000 -16.901857 10.135519 -11.702321 7.765922 14.744833 87.469116 1.119150 -0.509537 59.696850 13.840334 -15.369552 -12.423487 -20.878576 -11.974496 87.585716 -1.164567 0.489559 62.412045 -4.955740 5.910261 
3.571428 25.821468 0.240299 11.198579 0.000000 0.000000 23.479570 17.470552 -0.618130 -2.817559 -3.983807 -1.505491 -32.081078 -8.417016 -0.068206 -18.428970 -0.041243 -1.313691 -31.755381 16.365870 -52.498779 -31.379492 -5.713116 -5.600802 -22.669224 -26.874424 6.098740 -12.759129 36.247913 -20.823225 -14.224523 -9.362758 -11.211447 61.319096 17.387741 -42.655003 84.455109 53.220444 -0.225260 -18.727108 -16.568451 8.658422 -9.179334 7.497773 14.541545 86.523491 1.008256 -0.521605 59.923462 13.696812 -15.563100 -9.699162 -21.243208 -12.575522 86.690872 -1.113086 0.505060 62.437019 -4.994280 5.337434 
3.571428 25.821468 0.471587 9.400258 0.000000 0.000000 23.079895 17.470524 -0.617866 2.338292 -3.983980 -1.505662 -32.124943 -8.444908 -0.065194 -18.742916 -0.040168 -1.298659 -30.708920 18.257977 -55.218063 -31.772541 -5.894309 -5.633591 -23.550123 -27.780642 5.652114 -12.393830 36.723301 -21.182821 -16.178640 -10.421271 -12.954796 61.843025 17.217972 -42.434284 85.635994 53.587757 -1.184823 -19.908255 -16.263281 7.172702 -6.646592 7.237714 14.325775 85.577400 0.897117 -0.531846 60.149418 13.552539 -15.755949 -6.952907 -21.582066 -13.198574 85.795624 -1.061344 0.519762 62.461624 -5.033075 4.764473 
3.571428 25.821468 0.702875 7.599268 0.000000 0.000000 22.680189 17.470501 -0.617601 7.559183 -3.984140 -1.505851 -32.168804 -8.472795 -0.062161 -19.056797 -0.039010 -1.283637 -29.554270 20.102810 -58.009151 -32.165646 -6.075736 -5.665142 -24.447142 -28.681194 5.185556 -12.029890 37.200672 -21.540972 -18.176722 -11.422537 -14.744703 62.365856 17.046255 -42.215370 86.837746 53.943226 -2.165621 -21.098064 -15.987061 5.679713 -4.106503 6.986610 14.098042 84.630966 0.785779 -0.540253 60.374756 13.407519 -15.948104 -4.187979 -21.893620 -13.841852 84.900078 -1.009360 0.533659 62.485836 -5.072118 4.191408 
3.571428 25.821468 0.934163 5.796495 0.000000 0.000000 22.280464 17.470478 -0.617337 12.824347 -3.984282 -1.506054 -32.212677 -8.500679 -0.059106 -19.370605 -0.037771 -1.268624 -28.290068 21.891594 -60.873863 -32.558807 -6.257384 -5.695452 -25.360817 -29.575525 4.698537 -11.667322 37.679939 -21.897652 -20.216198 -12.362745 -16.578547 62.887589 16.872637 -41.998302 88.060150 54.286423 -3.167462 -22.295135 -15.740427 4.180866 -1.561525 6.745284 13.858946 83.684311 0.674285 -0.546821 60.599468 13.261768 -16.139565 -1.407825 -22.176498 -14.503359 84.004341 -0.957152 0.546744 62.509651 -5.111405 3.618266 
3.571428 25.821468 1.165451 3.992827 0.000000 0.000000 21.880732 17.470457 -0.617072 18.111937 -3.984406 -1.506271 -32.256538 -8.528558 -0.056030 -19.684340 -0.036450 -1.253621 -26.915840 23.615616 -63.813313 -32.952034 -6.439241 -5.724520 -26.291735 -30.463095 4.190531 -11.306147 38.161041 -22.252840 -22.293972 -13.238340 -18.453190 63.408142 16.697123 -41.783070 89.302956 54.616936 -4.190100 -23.497997 -15.523881 2.677607 0.985842 6.514504 13.609151 82.737556 0.562683 -0.551546 60.823547 13.115286 -16.330324 1.383939 -22.429501 -15.180910 83.108505 -0.904739 0.559012 62.533073 -5.150928 3.045076 
3.571428 25.821468 1.396739 2.189159 0.000000 0.000000 21.480997 17.470438 -0.616807 23.399527 -3.984509 -1.506498 -32.300407 -8.556434 -0.052932 -19.997999 -0.035046 -1.238630 -25.432034 25.266273 -66.827576 -33.345303 -6.621293 -5.752341 -27.240459 -31.343323 3.660994 -10.946376 38.643883 -22.606508 -24.406448 -14.046089 -20.364992 63.927551 16.519747 -41.569714 90.565765 54.934334 -5.233186 -24.705183 -15.337837 1.171426 3.533075 6.294981 13.349395 81.790833 0.451018 -0.554427 61.046982 12.968078 -16.520378 4.183557 -22.651628 -15.872176 82.212700 -0.852141 0.570460 62.556110 -5.190685 2.471867 
3.571428 25.821468 1.628027 0.386385 0.000000 0.000000 21.081276 17.470423 -0.616542 28.664696 -3.984591 -1.506734 -32.344284 -8.584304 -0.049812 -20.311579 -0.033562 -1.223651 -24.403780 27.145126 -69.519569 -33.738625 -6.803524 -5.778913 -28.207581 -32.215649 3.109388 -10.588033 39.128414 -22.958643 -26.549562 -14.783147 -22.309847 64.445755 16.340530 -41.358238 91.848259 55.238297 -6.296318 -25.915159 -15.182565 -0.336173 6.077633 6.087353 13.080472 80.844261 0.339336 -0.555462 61.269783 12.820151 -16.709728 6.987166 -22.842085 -16.574692 81.317032 -0.799377 0.581082 62.578735 -5.230665 1.898666 
3.571428 25.821468 1.859316 -1.414605 0.000000 0.000000 20.681566 17.470406 -0.616278 33.885582 -3.984650 -1.506973 -32.388153 -8.612172 -0.046670 -20.625063 -0.031995 -1.208684 -23.256187 28.980425 -72.300583 -34.131981 -6.985922 -5.804232 -29.193674 -33.079472 2.535165 -10.231131 39.614540 -23.309225 -28.718767 -15.447074 -24.283161 64.962746 16.159508 -41.148674 93.149933 55.528412 -7.379014 -27.126404 -15.058238 -1.843666 8.616986 5.892188 12.803220 79.897934 0.227683 -0.554652 61.491955 12.671517 -16.898376 9.790836 -23.000286 -17.285891 80.421600 -0.746466 0.590875 62.600971 -5.270866 1.325503 
3.571428 25.821468 2.090604 -3.212926 0.000000 0.000000 20.281895 17.470392 -0.616013 39.041443 -3.984687 -1.507214 -32.432030 -8.640036 -0.043507 -20.938459 -0.030348 -1.193731 -21.985382 30.763544 -75.174683 -34.525379 -7.168470 -5.828296 -30.199333 -33.934208 1.937783 -9.875691 40.102207 -23.658241 -30.909130 -16.035906 -26.279964 65.478508 15.976704 -40.941040 94.470154 55.804279 -8.480677 -28.337381 -14.964902 -3.349525 11.148623 5.709973 12.518536 78.952049 0.116105 -0.552000 61.713478 12.522175 -17.086311 12.590606 -23.125895 -18.003145 79.526527 -0.693428 0.599837 62.622787 -5.311279 0.752405 
3.571428 25.821468 2.321892 -5.007700 0.000000 0.000000 19.882261 17.470385 -0.615748 44.113064 -3.984702 -1.507453 -32.475910 -8.667895 -0.040323 -21.251755 -0.028619 -1.178791 -20.588163 32.485710 -78.145271 -34.918816 -7.351159 -5.851104 -31.225126 -34.779232 1.316690 -9.521726 40.591331 -24.005667 -32.976959 -16.901463 -28.142805 65.993019 15.792144 -40.735336 95.808311 56.065578 -9.600671 -29.546576 -14.902484 -4.852233 13.670061 5.541110 12.227329 78.006638 0.004648 -0.547509 61.934353 12.372130 -17.273533 15.382519 -23.218771 -18.723789 78.631897 -0.640283 0.607966 62.644196 -5.351900 0.179400 
3.571428 25.821468 2.090604 -3.212926 0.000000 0.000000 20.281897 17.470396 -0.616013 39.041443 -3.984687 -1.507214 -32.519794 -8.695750 -0.037116 -21.564953 -0.026809 -1.163866 -22.103508 30.827763 -75.088966 -34.525379 -7.168471 -5.828297 -30.199333 -33.934208 1.937782 -9.875690 40.102200 -23.658237 -30.783745 -16.311480 -26.143507 65.478508 15.976703 -40.941036 94.470131 55.804272 -8.480676 -28.337381 -14.964902 -3.349526 11.148623 5.709973 12.518535 78.952049 0.116105 -0.552000 61.713470 12.522172 -17.086309 12.590605 -23.125891 -18.003143 79.526527 -0.693428 0.599837 62.622787 -5.311279 0.752404 
3.571428 25.821468 1.859316 -1.414605 0.000000 0.000000 20.681568 17.470406 -0.616278 33.885582 -3.984650 -1.506973 -32.563667 -8.723599 -0.033889 -21.878044 -0.024918 -1.148956 -23.493902 29.099344 -72.126884 -34.131985 -6.985922 -5.804232 -29.193674 -33.079472 2.535165 -10.231132 39.614540 -23.309227 -28.612383 -15.646589 -24.168362 64.962746 16.159508 -41.148674 93.149933 55.528416 -7.379010 -27.126404 -15.058238 -1.843665 8.616987 5.892189 12.803222 79.897934 0.227683 -0.554652 61.491955 12.671517 -16.898376 9.790836 -23.000286 -17.285891 80.421600 -0.746466 0.590875 62.600971 -5.270865 1.325503 
3.571428 25.821468 1.628027 0.386385 0.000000 0.000000 21.081276 17.470423 -0.616542 28.664696 -3.984591 -1.506734 -32.607559 -8.751447 -0.030639 -22.191023 -0.022946 -1.134062 -24.761072 27.309301 -69.257072 -33.738625 -6.803524 -5.778913 -28.207581 -32.215649 3.109388 -10.588033 39.128414 -22.958643 -26.467800 -14.908775 -22.222334 64.445755 16.340530 -41.358238 91.848259 55.238297 -6.296318 -25.915159 -15.182565 -0.336173 6.077633 6.087353 13.080472 80.844261 0.339336 -0.555462 61.269783 12.820151 -16.709728 6.987166 -22.842085 -16.574692 81.317032 -0.799377 0.581082 62.578735 -5.230665 1.898666 
3.571428 25.821468 1.396739 2.189159 0.000000 0.000000 21.480999 17.470438 -0.616807 23.399525 -3.984509 -1.506498 -32.651447 -8.779289 -0.027368 -22.503883 -0.020894 -1.119184 -25.907675 25.466400 -66.476555 -33.345306 -6.621294 -5.752342 -27.240459 -31.343323 3.660994 -10.946376 38.643883 -22.606508 -24.354504 -14.100481 -20.309978 63.927551 16.519747 -41.569714 90.565765 54.934338 -5.233182 -24.705183 -15.337837 1.171426 3.533074 6.294979 13.349393 81.790840 0.451018 -0.554427 61.046982 12.968078 -16.520378 4.183556 -22.651627 -15.872175 82.212715 -0.852141 0.570460 62.556110 -5.190685 2.471867 
3.571428 25.821468 1.165451 3.992827 0.000000 0.000000 21.880732 17.470457 -0.617072 18.111937 -3.984406 -1.506271 -32.695332 -8.807127 -0.024075 -22.816628 -0.018762 -1.104323 -26.937103 23.579319 -63.781715 -32.952034 -6.439241 -5.724520 -26.291735 -30.463095 4.190531 -11.306147 38.161041 -22.252840 -22.276552 -13.224575 -18.435389 63.408142 16.697123 -41.783070 89.302956 54.616936 -4.190100 -23.497997 -15.523881 2.677607 0.985842 6.514504 13.609151 82.737556 0.562683 -0.551546 60.823547 13.115286 -16.330324 1.383939 -22.429501 -15.180910 83.108505 -0.904739 0.559012 62.533073 -5.150928 3.045076 
3.571428 25.821468 0.934163 5.796495 0.000000 0.000000 22.280464 17.470478 -0.617337 12.824347 -3.984282 -1.506054 -32.739220 -8.834961 -0.020761 -23.129250 -0.016549 -1.089480 -27.853277 21.656511 -61.168388 -32.558807 -6.257384 -5.695452 -25.360813 -29.575521 4.698537 -11.667322 37.679939 -21.897650 -20.237511 -12.284287 -16.602169 62.887589 16.872639 -41.998302 88.060150 54.286419 -3.167466 -22.295135 -15.740429 4.180866 -1.561526 6.745285 13.858949 83.684311 0.674285 -0.546821 60.599461 13.261767 -16.139563 -1.407825 -22.176498 -14.503359 84.004341 -0.957152 0.546744 62.509651 -5.111404 3.618266 
3.571428 25.821468 0.702875 7.599268 0.000000 0.000000 22.680189 17.470501 -0.617601 7.559183 -3.984140 -1.505851 -32.783123 -8.862791 -0.017425 -23.441740 -0.014256 -1.074655 -29.223545 19.940670 -58.234077 -32.165646 -6.075736 -5.665142 -24.447142 -28.681194 5.185556 -12.029890 37.200672 -21.540972 -18.240414 -11.283161 -14.813407 62.365856 17.046255 -42.215370 86.837746 53.943226 -2.165621 -21.098064 -15.987061 5.679713 -4.106503 6.986610 14.098042 84.630966 0.785779 -0.540253 60.374756 13.407519 -15.948104 -4.187979 -21.893620 -13.841852 84.900078 -1.009360 0.533659 62.485836 -5.072118 4.191408 
3.571428 25.821468 0.471587 9.400258 0.000000 0.000000 23.079895 17.470522 -0.617866 2.338292 -3.983981 -1.505662 -32.827015 -8.890617 -0.014067 -23.754087 -0.011884 -1.059850 -30.487223 18.159363 -55.369926 -31.772537 -5.894308 -5.633591 -23.550123 -27.780640 5.652114 -12.393832 36.723309 -21.182825 -16.287804 -10.225001 -13.071684 61.843025 17.217972 -42.434284 85.636002 53.587765 -1.184819 -19.908251 -16.263279 7.172702 -6.646592 7.237714 14.325775 85.577400 0.897117 -0.531846 60.149418 13.552539 -15.755949 -6.952907 -21.582066 -13.198573 85.795624 -1.061344 0.519762 62.461624 -5.033075 4.764474 
